<?xml version="1.0" encoding="utf-8"?>
<!-- Generator: Adobe Illustrator 26.1.0, SVG Export Plug-In . SVG Version: 6.00 Build 0)  -->
<svg version="1.1" id="Layer_1" xmlns="http://www.w3.org/2000/svg" xmlns:xlink="http://www.w3.org/1999/xlink" x="0px" y="0px"
	 viewBox="0 0 960 560" style="enable-background:new 0 0 960 560;" xml:space="preserve">
<style type="text/css">
	.st0{fill:#FFFFFF;}
</style>
<g>
	<polygon id="XMLID_12_" class="st0" points="340.55,166.39 301.81,205.11 263.09,166.39 120.34,166.39 230.44,276.5 113.66,393.26 
		256.18,393.49 301.81,347.86 310.72,356.78 382.11,285.41 373.19,276.5 483,166.68 483.29,166.39 	"/>
	<polygon id="XMLID_11_" class="st0" points="518.94,166.39 661.69,166.39 434.6,393.49 291.85,393.49 	"/>
	<g>
		<path id="XMLID_4_" class="st0" d="M772.04,343.57h-7.13v35.95h7.13c2.8,0,5.12-1.2,6.93-3.61c1.82-2.41,2.73-5.52,2.73-9.33
			v-10.14c0-3.76-0.91-6.85-2.73-9.26C777.15,344.77,774.84,343.57,772.04,343.57z"/>
		<path class="st0" d="M730.01,276.5l110.11-110.1H697.39l-38.74,38.74l-9.16-9.16l-71.36,71.36l9.16,9.16L470.29,393.49h142.73
			l45.62-45.63l45.63,45.63H847L730.01,276.5z M744.52,385.91c-3.74,2.93-8.52,4.4-14.32,4.4c-5.02,0-9.39-1.38-13.1-4.13
			c-3.71-2.75-5.5-6.74-5.38-11.96l0.07-0.23h12.04c0,1.82,0.6,3.33,1.79,4.53c1.19,1.2,2.72,1.81,4.57,1.81
			c2.22,0,4.04-0.65,5.47-1.94c1.43-1.29,2.14-2.9,2.14-4.82c0-2.71-0.68-4.69-2.03-5.93c-1.35-1.24-3.26-1.86-5.73-1.86h-5.85
			v-9.64h5.85c2.22,0,3.93-0.63,5.12-1.88c1.19-1.25,1.79-3,1.79-5.22c0-1.74-0.61-3.22-1.83-4.44c-1.22-1.22-2.87-1.82-4.94-1.82
			c-1.56,0-2.88,0.48-3.97,1.44c-1.09,0.96-1.63,2.22-1.63,3.78h-12l-0.07-0.23c-0.15-4.46,1.52-8.07,4.99-10.83
			s7.7-4.15,12.68-4.15c5.78,0,10.41,1.39,13.88,4.17c3.48,2.78,5.21,6.72,5.21,11.81c0,2.54-0.73,4.87-2.2,6.99
			c-1.46,2.13-3.45,3.8-5.96,5.03c2.88,1.1,5.1,2.76,6.66,4.97c1.56,2.21,2.34,4.91,2.34,8.08
			C750.14,378.95,748.26,382.98,744.52,385.91z M787.77,383.09c-4.22,4.28-9.46,6.41-15.73,6.41h-19.5v-55.92h19.5
			c6.27,0,11.51,2.14,15.73,6.43c4.22,4.29,6.33,9.79,6.33,16.5v10.06C794.1,373.31,791.99,378.81,787.77,383.09z"/>
	</g>
</g>
</svg>
